<mxfile host="app.diagrams.net" modified="2023-08-21T07:26:42.894Z" agent="Mozilla/5.0 (Macintosh; Intel Mac OS X 10_15_7) AppleWebKit/537.36 (KHTML, like Gecko) Chrome/115.0.0.0 Safari/537.36" etag="fbJjuNRFlGsVXR7RPhTz" version="21.6.8" type="github">
  <diagram name="Page-0" id="Page-0">
    <mxGraphModel dx="1194" dy="617" grid="1" gridSize="10" guides="1" tooltips="1" connect="1" arrows="1" fold="1" page="1" pageScale="1" pageWidth="1547" pageHeight="768" math="0" shadow="0">
      <root>
        <mxCell id="0" />
        <mxCell id="1" parent="0" />
        <mxCell id="IQwMRkZfNkopr5tzb5jn-18" style="edgeStyle=orthogonalEdgeStyle;rounded=0;orthogonalLoop=1;jettySize=auto;html=1;exitX=0.5;exitY=1;exitDx=0;exitDy=0;" parent="1" edge="1">
          <mxGeometry relative="1" as="geometry">
            <mxPoint x="200" y="460" as="sourcePoint" />
            <mxPoint x="200" y="460" as="targetPoint" />
          </mxGeometry>
        </mxCell>
        <mxCell id="IQwMRkZfNkopr5tzb5jn-40" style="edgeStyle=orthogonalEdgeStyle;rounded=0;orthogonalLoop=1;jettySize=auto;html=1;entryX=0;entryY=0.542;entryDx=0;entryDy=0;entryPerimeter=0;" parent="1" edge="1">
          <mxGeometry relative="1" as="geometry">
            <mxPoint x="160" y="234.58000000000004" as="targetPoint" />
            <mxPoint x="10" y="234.5" as="sourcePoint" />
          </mxGeometry>
        </mxCell>
        <mxCell id="IQwMRkZfNkopr5tzb5jn-38" value="&lt;b&gt;&amp;nbsp;&lt;/b&gt;" style="rounded=1;whiteSpace=wrap;html=1;" parent="1" vertex="1">
          <mxGeometry x="160" y="80" width="280" height="320" as="geometry" />
        </mxCell>
        <mxCell id="IQwMRkZfNkopr5tzb5jn-44" value="HTTP request" style="text;html=1;align=center;verticalAlign=middle;resizable=0;points=[];autosize=1;strokeColor=none;fillColor=none;" parent="1" vertex="1">
          <mxGeometry x="10" y="198" width="100" height="30" as="geometry" />
        </mxCell>
        <mxCell id="S0CbOoUuPFT3NwawpBFu-16" style="edgeStyle=orthogonalEdgeStyle;rounded=0;orthogonalLoop=1;jettySize=auto;html=1;exitX=1;exitY=0.5;exitDx=0;exitDy=0;entryX=0.5;entryY=1;entryDx=0;entryDy=0;" parent="1" source="S0CbOoUuPFT3NwawpBFu-7" target="S0CbOoUuPFT3NwawpBFu-9" edge="1">
          <mxGeometry relative="1" as="geometry" />
        </mxCell>
        <mxCell id="S0CbOoUuPFT3NwawpBFu-7" value="Routing&lt;br style=&quot;border-color: var(--border-color);&quot;&gt;Middleware&lt;br&gt;Validation&lt;br style=&quot;border-color: var(--border-color);&quot;&gt;Concurrency&amp;nbsp;&lt;br&gt;&amp;nbsp;" style="rounded=1;whiteSpace=wrap;html=1;" parent="1" vertex="1">
          <mxGeometry x="170" y="290" width="120" height="80" as="geometry" />
        </mxCell>
        <mxCell id="S0CbOoUuPFT3NwawpBFu-8" value="GoLang Server" style="rounded=1;whiteSpace=wrap;html=1;" parent="1" vertex="1">
          <mxGeometry x="170" y="130" width="120" height="60" as="geometry" />
        </mxCell>
        <mxCell id="S0CbOoUuPFT3NwawpBFu-9" value="RPC Client&lt;br&gt;Implementation" style="rounded=1;whiteSpace=wrap;html=1;" parent="1" vertex="1">
          <mxGeometry x="300" y="210" width="120" height="60" as="geometry" />
        </mxCell>
        <mxCell id="S0CbOoUuPFT3NwawpBFu-10" value="" style="rounded=1;whiteSpace=wrap;html=1;" parent="1" vertex="1">
          <mxGeometry x="550" y="80" width="280" height="320" as="geometry" />
        </mxCell>
        <mxCell id="S0CbOoUuPFT3NwawpBFu-11" style="edgeStyle=orthogonalEdgeStyle;rounded=0;orthogonalLoop=1;jettySize=auto;html=1;entryX=0;entryY=0.542;entryDx=0;entryDy=0;entryPerimeter=0;" parent="1" edge="1">
          <mxGeometry relative="1" as="geometry">
            <mxPoint x="550" y="239.58000000000004" as="targetPoint" />
            <mxPoint x="440" y="240" as="sourcePoint" />
          </mxGeometry>
        </mxCell>
        <mxCell id="S0CbOoUuPFT3NwawpBFu-12" value="RPC" style="text;html=1;align=center;verticalAlign=middle;resizable=0;points=[];autosize=1;strokeColor=none;fillColor=none;" parent="1" vertex="1">
          <mxGeometry x="460" y="210" width="50" height="30" as="geometry" />
        </mxCell>
        <mxCell id="S0CbOoUuPFT3NwawpBFu-13" value="" style="endArrow=classic;html=1;rounded=0;exitX=0.5;exitY=1;exitDx=0;exitDy=0;entryX=0.5;entryY=0;entryDx=0;entryDy=0;" parent="1" source="S0CbOoUuPFT3NwawpBFu-8" target="S0CbOoUuPFT3NwawpBFu-7" edge="1">
          <mxGeometry width="50" height="50" relative="1" as="geometry">
            <mxPoint x="580" y="350" as="sourcePoint" />
            <mxPoint x="630" y="300" as="targetPoint" />
          </mxGeometry>
        </mxCell>
        <mxCell id="S0CbOoUuPFT3NwawpBFu-19" value="GoLang Application" style="text;html=1;strokeColor=none;fillColor=none;align=center;verticalAlign=middle;whiteSpace=wrap;rounded=0;" parent="1" vertex="1">
          <mxGeometry x="270" y="90" width="60" height="30" as="geometry" />
        </mxCell>
        <mxCell id="S0CbOoUuPFT3NwawpBFu-20" value="PHP Application" style="text;html=1;strokeColor=none;fillColor=none;align=center;verticalAlign=middle;whiteSpace=wrap;rounded=0;" parent="1" vertex="1">
          <mxGeometry x="670" y="100" width="60" height="30" as="geometry" />
        </mxCell>
        <mxCell id="S0CbOoUuPFT3NwawpBFu-21" value="RPC Server" style="rounded=1;whiteSpace=wrap;html=1;" parent="1" vertex="1">
          <mxGeometry x="700" y="138" width="120" height="60" as="geometry" />
        </mxCell>
        <mxCell id="S0CbOoUuPFT3NwawpBFu-22" value="" style="endArrow=classic;html=1;rounded=0;entryX=1;entryY=0.563;entryDx=0;entryDy=0;entryPerimeter=0;" parent="1" target="IQwMRkZfNkopr5tzb5jn-38" edge="1">
          <mxGeometry width="50" height="50" relative="1" as="geometry">
            <mxPoint x="550" y="260" as="sourcePoint" />
            <mxPoint x="630" y="300" as="targetPoint" />
          </mxGeometry>
        </mxCell>
        <mxCell id="S0CbOoUuPFT3NwawpBFu-23" value="RPC Server Implementation&lt;br&gt;S" style="rounded=1;whiteSpace=wrap;html=1;" parent="1" vertex="1">
          <mxGeometry x="640" y="290" width="120" height="60" as="geometry" />
        </mxCell>
        <mxCell id="S0CbOoUuPFT3NwawpBFu-24" value="" style="endArrow=classic;html=1;rounded=0;exitX=0.5;exitY=1;exitDx=0;exitDy=0;entryX=0.5;entryY=0;entryDx=0;entryDy=0;" parent="1" source="S0CbOoUuPFT3NwawpBFu-21" target="S0CbOoUuPFT3NwawpBFu-23" edge="1">
          <mxGeometry width="50" height="50" relative="1" as="geometry">
            <mxPoint x="580" y="350" as="sourcePoint" />
            <mxPoint x="630" y="300" as="targetPoint" />
          </mxGeometry>
        </mxCell>
        <mxCell id="72ordWhHQH1GhUy5wvvK-1" value="Nginx+Php-fpm" style="rounded=1;whiteSpace=wrap;html=1;" parent="1" vertex="1">
          <mxGeometry x="560" y="138" width="120" height="60" as="geometry" />
        </mxCell>
      </root>
    </mxGraphModel>
  </diagram>
</mxfile>
